<?xml version="1.0" standalone="no"?><!DOCTYPE svg PUBLIC "-//W3C//DTD SVG 1.1//EN" "http://www.w3.org/Graphics/SVG/1.1/DTD/svg11.dtd"><svg class="icon" width="200px" height="200.00px" viewBox="0 0 1024 1024" version="1.1" xmlns="http://www.w3.org/2000/svg"><path d="M162.797568 576.497664c-30.287872 75.442176-35.29728 147.37408-10.903552 160.73728 16.87552 9.275392 43.149312-11.943936 67.883008-50.542592 9.814016 42.274816 34.000896 80.203776 68.589568 110.866432-36.21888 14.116864-59.94496 37.175296-59.94496 63.24224 0 42.944512 64.079872 77.613056 143.112192 77.613056 71.305216 0 130.373632-28.153856 141.273088-65.247232 2.885632 0 14.209024 0 16.961536 0 11.114496 37.093376 70.053888 65.247232 141.441024 65.247232 79.120384 0 143.11424-34.670592 143.11424-77.613056 0-26.066944-23.683072-48.955392-59.98592-63.24224 34.463744-30.662656 58.81856-68.591616 68.548608-110.866432 24.727552 38.598656 50.880512 59.817984 67.84 50.542592 24.518656-13.3632 19.632128-85.295104-10.94656-160.73728-23.891968-59.068416-56.266752-102.67648-80.953344-112.449536 0.333824-3.592192 0.626688-7.563264 0.626688-11.364352 0-22.892544-6.098944-44.027904-16.498688-61.239296 0.210944-1.376256 0.210944-2.67264 0.210944-4.050944 0-10.569728-2.381824-20.385792-6.475776-28.86656-6.223872-153.76384-101.339136-276.02944-255.35488-276.02944-153.974784 0-249.217024 122.267648-255.440896 276.02944-4.009984 8.605696-6.473728 18.466816-6.473728 28.993536 0 1.378304 0 2.67264 0.167936 4.052992-10.190848 17.084416-16.29184 38.219776-16.29184 61.19424 0 3.844096 0.206848 7.686144 0.4608 11.446272C219.148288 473.905152 186.650624 517.431296 162.797568 576.497664L162.797568 576.497664z" fill="#02d6dc"/></svg>